<svg xmlns="http://www.w3.org/2000/svg" width="19" height="19">
    <path fill="#FFF" fill-rule="evenodd" d="M13.07 18.31C8.214 20.275 2.663 17.92.697 13.061-1.269 8.203 1.084 2.651 5.94.687c4.856-1.965 10.406.39 12.372 5.248 1.966 4.859-.386 10.41-5.242 12.375zm4.158-11.936C15.504 2.113 10.637.048 6.379 1.771 2.119 3.494.057 8.362 1.781 12.623c1.724 4.261 6.591 6.325 10.85 4.602 4.259-1.722 6.321-6.59 4.597-10.851zm-5.992 6.999a.978.978 0 1 1-.733-1.812.978.978 0 0 1 .733 1.812zm-1.465-3.086a.586.586 0 0 1-.762-.323L7.145 5.355a.584.584 0 0 1 1.084-.439l1.865 4.61a.585.585 0 0 1-.323.761z"/>
</svg>
