<svg xmlns="http://www.w3.org/2000/svg" width="33" height="25">
    <path fill="#535353" fill-rule="evenodd" d="M32.466 5.262c-.004.045.01.089-.002.134l-2.791 12.955a1.214 1.214 0 0 1-1.177.973h-17.65c-.531 0-1.001-.36-1.154-.884L5.136 2.779H1.217c-.666 0-1.205-.556-1.205-1.241C.012.852.551.297 1.217.297H6.03c.531 0 1 .36 1.153.885l.789 2.711c.017-.002.032-.012.049-.012l23.268.004c.046 0 .084.023.13.026.044.004.084-.008.131.003.037.008.064.033.098.045.082.027.154.062.226.104.065.038.126.076.183.126.058.052.11.109.158.174.049.061.09.12.125.191.036.069.061.142.083.218.024.078.04.156.049.241.004.039.022.073.022.112 0 .048-.021.089-.028.137zm-23.773 1.1l3.048 10.478h15.792l2.256-10.474-21.096-.004zm1.737 13.683c1.328 0 2.406 1.11 2.406 2.481 0 1.372-1.078 2.482-2.406 2.482-1.33 0-2.408-1.11-2.408-2.482 0-1.371 1.078-2.481 2.408-2.481zm18.454 0c1.328 0 2.405 1.11 2.405 2.481 0 1.372-1.077 2.482-2.405 2.482-1.331 0-2.409-1.11-2.409-2.482 0-1.371 1.078-2.481 2.409-2.481z"/>
</svg>
